<svg viewBox="0 0 1200 420" xmlns="http://www.w3.org/2000/svg">
  <defs>
    <filter id="grain">
      <feTurbulence type="fractalNoise" baseFrequency="0.85" numOctaves="2" result="noise"/>
      <feColorMatrix in="noise" type="matrix" values="0 0 0 0 0  0 0 0 0 0  0 0 0 0 0  0 0 0 0.035 0"/>
      <feComposite operator="over" in2="SourceGraphic"/>
    </filter>
    <linearGradient id="parchment" x1="0" y1="0" x2="1" y2="1">
      <stop offset="0%" stop-color="#EFE3C8"/>
      <stop offset="100%" stop-color="#DFCBA0"/>
    </linearGradient>
    <radialGradient id="vignette" cx="50%" cy="50%" r="75%">
      <stop offset="60%" stop-color="#000000" stop-opacity="0"/>
      <stop offset="100%" stop-color="#241C15" stop-opacity="0.18"/>
    </radialGradient>
  </defs>

  <rect width="1200" height="420" fill="url(#parchment)"/>
  <rect width="1200" height="420" fill="url(#parchment)" filter="url(#grain)"/>
  <rect width="1200" height="420" fill="url(#vignette)"/>

  <!-- outer frame -->
  <rect x="24" y="24" width="1152" height="372" fill="none" stroke="#A6813C" stroke-width="2"/>
  <rect x="32" y="32" width="1136" height="356" fill="none" stroke="#6B2530" stroke-width="1"/>

  <!-- corner flourishes -->
  <g stroke="#6B2530" stroke-width="1.5" fill="none">
    <path d="M32,60 Q32,32 60,32"/>
    <path d="M1140,32 Q1168,32 1168,60"/>
    <path d="M1168,360 Q1168,388 1140,388"/>
    <path d="M60,388 Q32,388 32,360"/>
  </g>

  <!-- wax seal emblem -->
  <g transform="translate(600,108)">
    <circle r="46" fill="#6B2530" stroke="#4a1a20" stroke-width="2"/>
    <circle r="46" fill="none" stroke="#A6813C" stroke-width="1" opacity="0.5"/>
    <g fill="#EFE3C8" font-family="Georgia, 'Times New Roman', serif">
      <path id="sealtop" d="M -34,0 A 34,34 0 0,1 34,0" fill="none"/>
      <text font-size="11" letter-spacing="3">
        <textPath href="#sealtop" startOffset="50%" text-anchor="middle">CAVEAT · LECTOR</textPath>
      </text>
    </g>
    <path d="M-14,-4 Q0,-24 14,-4 Q6,4 0,-2 Q-6,4 -14,-4 Z" fill="#EFE3C8"/>
    <circle cy="10" r="3" fill="#EFE3C8"/>
  </g>

  <!-- eyebrow -->
  <text x="600" y="185" text-anchor="middle" font-family="Georgia, 'Times New Roman', serif"
        font-size="15" letter-spacing="6" fill="#6B2530">A FIELD STUDY IN THREE PARTS</text>

  <!-- title -->
  <text x="600" y="240" text-anchor="middle" font-family="Georgia, 'Times New Roman', serif"
        font-size="54" font-weight="bold" fill="#241C15">The Cognitive Ledger</text>

  <!-- divider -->
  <g stroke="#A6813C" stroke-width="1.5">
    <line x1="420" y1="265" x2="780" y2="265"/>
  </g>
  <circle cx="600" cy="265" r="4" fill="#6B2530"/>

  <!-- subtitle -->
  <text x="600" y="305" text-anchor="middle" font-family="Palatino, 'Book Antiqua', Georgia, serif"
        font-style="italic" font-size="20" fill="#3a2f24">On borrowing thought from machines, and what is quietly owed in return</text>

  <text x="600" y="365" text-anchor="middle" font-family="Georgia, serif"
        font-size="13" letter-spacing="2" fill="#5c4d3c">Assembled from peer-reviewed studies, randomized trials, and one very old dialogue of Plato's</text>
</svg>
