<svg viewBox="0 0 1200 650" xmlns="http://www.w3.org/2000/svg">
  <defs>
    <filter id="grain3">
      <feTurbulence type="fractalNoise" baseFrequency="0.65" numOctaves="3" result="n"/>
      <feColorMatrix in="n" type="matrix" values="0 0 0 0 0 0 0 0 0 0 0 0 0 0 0 0 0 0 0.035 0"/>
      <feComposite operator="over" in2="SourceGraphic"/>
    </filter>
    <linearGradient id="p3" x1="0" y1="0" x2=".3" y2="1">
      <stop offset="0%" stop-color="#F2E8D0"/><stop offset="100%" stop-color="#DCCBA0"/>
    </linearGradient>
    <linearGradient id="sf" x1="0" y1="0" x2="0" y2="1">
      <stop offset="0%" stop-color="#E8D8B4"/><stop offset="100%" stop-color="#D4C498"/>
    </linearGradient>
    <filter id="cs"><feDropShadow dx="0" dy="2" stdDeviation="3" flood-color="#6B2530" flood-opacity="0.15"/></filter>
  </defs>
  <rect width="1200" height="650" fill="url(#p3)"/>
  <rect width="1200" height="650" fill="url(#p3)" filter="url(#grain3)"/>
  <rect x="20" y="20" width="1160" height="610" fill="none" stroke="#A6813C" stroke-width="1.5" rx="2"/>

  <text x="600" y="60" text-anchor="middle" font-family="Georgia,serif" font-size="24" font-weight="bold" fill="#241C15">The Guild's Staircase and the Narrow Gate of Help</text>
  <text x="600" y="86" text-anchor="middle" font-family="Palatino,Georgia,serif" font-style="italic" font-size="13.5" fill="#4a3c2e">Five stages of mastery, and where AI assistance actually helps rather than hollows</text>

  <!-- goldilocks highlight band -->
  <rect x="370" y="105" width="290" height="400" fill="#4B5A45" opacity="0.05" rx="6"/>

  <!-- staircase steps -->
  <rect x="120" y="470" width="160" height="35" fill="url(#sf)" stroke="#6B2530" rx="1"/>
  <rect x="280" y="435" width="160" height="70" fill="url(#sf)" stroke="#6B2530" rx="1"/>
  <rect x="440" y="390" width="160" height="115" fill="url(#sf)" stroke="#6B2530" rx="1"/>
  <rect x="600" y="340" width="160" height="165" fill="url(#sf)" stroke="#6B2530" rx="1"/>
  <rect x="760" y="285" width="160" height="220" fill="url(#sf)" stroke="#6B2530" rx="1"/>

  <!-- stage labels -->
  <g font-family="Georgia,serif" font-size="12" font-weight="bold" fill="#241C15" text-anchor="middle">
    <text x="200" y="525">Novice</text><text x="360" y="525">Adv. Beginner</text>
    <text x="520" y="525">Competent</text><text x="680" y="525">Proficient</text><text x="840" y="525">Expert</text>
  </g>
  <g font-family="Georgia,serif" font-size="11" font-style="italic" text-anchor="middle">
    <text x="200" y="545" fill="#6B2530">the Apprentice</text>
    <text x="520" y="545" fill="#4B5A45">the Journeyman</text>
    <text x="840" y="545" fill="#6B2530">the Master</text>
  </g>

  <!-- goldilocks curve -->
  <path d="M120,280 C250,160 370,120 520,110 C650,102 740,165 920,265" fill="none" stroke="#6B2530" stroke-width="3" stroke-linecap="round" filter="url(#cs)"/>
  <text x="520" y="95" text-anchor="middle" font-family="Georgia,serif" font-size="12" font-weight="bold" fill="#6B2530">▲ measured benefit of AI assistance</text>

  <!-- zone labels -->
  <g font-family="Palatino,Georgia,serif" font-size="11" fill="#3a2f24">
    <rect x="130" y="237" width="130" height="55" fill="#6B2530" opacity="0.06" rx="4"/>
    <text x="195" y="256" text-anchor="middle" font-weight="bold" fill="#6B2530" font-family="Georgia,serif" font-size="12">overload</text>
    <text x="195" y="272" text-anchor="middle">too much, too fast —</text>
    <text x="195" y="286" text-anchor="middle">can't be absorbed</text>

    <rect x="435" y="126" width="170" height="50" fill="#4B5A45" opacity="0.08" rx="4"/>
    <text x="520" y="143" text-anchor="middle" font-weight="bold" fill="#4B5A45" font-family="Georgia,serif" font-size="13">the Goldilocks zone</text>
    <text x="520" y="160" text-anchor="middle">enough foundation to judge,</text>
    <text x="520" y="174" text-anchor="middle">humble enough to use it</text>

    <rect x="730" y="232" width="130" height="55" fill="#6B2530" opacity="0.06" rx="4"/>
    <text x="795" y="251" text-anchor="middle" font-weight="bold" fill="#6B2530" font-family="Georgia,serif" font-size="12">resistance</text>
    <text x="795" y="267" text-anchor="middle">correct skepticism, but</text>
    <text x="795" y="281" text-anchor="middle">forgone efficiency</text>
  </g>

  <!-- axis -->
  <line x1="90" y1="570" x2="940" y2="570" stroke="#241C15" stroke-width="1"/>
  <polygon points="940,567 952,570 940,573" fill="#241C15" opacity="0.5"/>
  <text x="90" y="590" font-family="Georgia,serif" font-size="11" fill="#4a3c2e">less skilled</text>
  <text x="870" y="590" font-family="Georgia,serif" font-size="11" fill="#4a3c2e">more skilled</text>

  <text x="600" y="630" text-anchor="middle" font-family="Palatino,Georgia,serif" font-size="11.5" fill="#3a2f24" font-style="italic">After Dreyfus &amp; Dreyfus (1980) and the sales-coaching "Goldilocks effect" (Luo et al.)</text>
</svg>
